<svg width="100%" height="100%" id="svg" viewBox="0 0 1440 690" xmlns="http://www.w3.org/2000/svg" class="transition duration-300 ease-in-out delay-150"><path d="M 0,700 L 0,131 C 29.020092791064016,148.18766577599843 58.04018558212803,165.37533155199685 93,169 C 127.95981441787197,172.62466844800315 168.85935046255193,162.68633956801105 198,142 C 227.14064953744807,121.31366043198895 244.5224125676644,89.8793101759589 276,84 C 307.4775874323356,78.1206898240411 353.0509992667904,97.79641972815337 393,94 C 432.9490007332096,90.20358027184663 467.27359036517396,62.93501091142767 493,85 C 518.726409634826,107.06498908857233 535.8546392725137,178.46353662613592 567,176 C 598.1453607274863,173.53646337386408 643.3078525447713,97.21084258402871 677,89 C 710.6921474552287,80.78915741597129 732.9139505484011,140.69309303774924 762,148 C 791.0860494515989,155.30690696225076 827.0363452616244,110.01678526497439 862,99 C 896.9636547383756,87.98321473502561 930.9406684051015,111.23976590235327 966,128 C 1001.0593315948985,144.76023409764673 1037.2009811179698,155.02415112561252 1073,160 C 1108.7990188820302,164.97584887438748 1144.2554071230186,164.66362959519665 1169,142 C 1193.7445928769814,119.33637040480335 1207.7773903899565,74.32133049360088 1240,76 C 1272.2226096100435,77.67866950639912 1322.6350313171554,126.05104843039976 1359,143 C 1395.3649686828446,159.94895156960024 1417.6824843414224,145.47447578480012 1440,131 L 1440,700 L 0,700 Z" stroke="none" stroke-width="0" fill="white" fill-opacity="0.1" class="transition-all duration-300 ease-in-out delay-150 path-0"></path><path d="M 0,700 L 0,306 C 31.31430650534685,318.233985444888 62.6286130106937,330.467970889776 93,329 C 123.3713869893063,327.532029110224 152.79985446257203,312.3621018857841 182,318 C 211.20014553742797,323.6378981142159 240.17196913901836,350.08362156708773 273,364 C 305.82803086098164,377.91637843291227 342.5122689813545,379.3034118458649 378,366 C 413.4877310186455,352.6965881541351 447.778954935564,324.7027310494527 481,309 C 514.221045064436,293.2972689505473 546.3719112763895,289.88566395632415 575,308 C 603.6280887236105,326.11433604367585 628.7333999588782,365.7546131252506 659,367 C 689.2666000411218,368.2453868747494 724.6944888880977,331.09588354267345 755,326 C 785.3055111119023,320.90411645732655 810.4886444887305,347.8618527040556 848,352 C 885.5113555112695,356.1381472959444 935.3509331569797,337.4567056411043 965,308 C 994.6490668430203,278.5432943588957 1004.1076228833508,238.31132473152735 1039,253 C 1073.8923771166492,267.68867526847265 1134.2185753096173,337.2979954327864 1169,339 C 1203.7814246903827,340.7020045672136 1213.01807587818,274.4966935373267 1235,256 C 1256.98192412182,237.5033064626733 1291.7091211776628,266.71523041790664 1328,283 C 1364.2908788223372,299.28476958209336 1402.1454394111686,302.64238479104665 1440,306 L 1440,700 L 0,700 Z" stroke="none" stroke-width="0" fill="white" fill-opacity="0.3" class="transition-all duration-300 ease-in-out delay-150 path-1"></path><path d="M 0,700 L 0,481 C 27.85787311708556,506.58359604053123 55.71574623417112,532.1671920810625 88,536 C 120.28425376582888,539.8328079189375 156.99488818040103,521.9148277162815 187,522 C 217.00511181959897,522.0851722837185 240.30470104422471,540.1734970538117 273,544 C 305.6952989557753,547.8265029461883 347.78630764270025,537.3911840684713 382,508 C 416.21369235729975,478.60881593152874 442.55006838497405,430.26176667230317 472,435 C 501.44993161502595,439.73823332769683 534.0134188174035,497.5617492423159 571,497 C 607.9865811825965,496.4382507576841 649.3962563454122,437.49123635843335 680,436 C 710.6037436545878,434.50876364156665 730.4015558009477,490.4733053239506 760,507 C 789.5984441990523,523.5266946760494 828.9975204507975,500.6155423457642 860,480 C 891.0024795492025,459.3844576542358 913.6083623958632,441.06452529299287 946,432 C 978.3916376041368,422.93547470700713 1020.5690299657495,423.12635648226427 1059,445 C 1097.4309700342505,466.87364351773573 1132.1155177411392,510.4300487779498 1161,511 C 1189.8844822588608,511.5699512220502 1212.9688990696932,469.15344840593656 1244,468 C 1275.0311009303068,466.84655159406344 1314.0088859800876,506.9561575983038 1348,516 C 1381.9911140199124,525.0438424016962 1410.9955570099562,503.0219212008481 1440,481 L 1440,700 L 0,700 Z" stroke="none" stroke-width="0" fill="white" fill-opacity="1" class="transition-all duration-300 ease-in-out delay-150 path-2"></path></svg>