<?xml version="1.0" encoding="iso-8859-1"?>
<!-- Uploaded to: SVG Repo, www.svgrepo.com, Generator: SVG Repo Mixer Tools -->
<svg fill="white" height="800px" width="800px" version="1.1" id="Layer_1" xmlns="http://www.w3.org/2000/svg" xmlns:xlink="http://www.w3.org/1999/xlink" 
	 viewBox="0 0 512 512" xml:space="preserve">
<g>
	<g>
		<path d="M477.073,260.495c6.51-2.299,12.478-6.041,17.505-11.067c8.861-8.86,13.742-20.642,13.743-33.172l0.004-43.781
			c0.004-50.482-55.373-81.143-101.83-97.977c-52.846-19.149-113.201-27.81-150.032-27.954l-0.922-0.002v0.002
			c-36.831,0.145-97.188,8.806-150.033,27.954C59.049,91.33,3.672,121.993,3.676,172.475l0.004,43.781
			c0.001,12.531,4.881,24.313,13.744,33.172c5.027,5.026,10.995,8.768,17.504,11.067L0,289.489v175.97h512v-175.97L477.073,260.495z
			 M118.025,109.046c48.601-17.611,105.452-25.68,137.977-25.759c32.522,0.08,89.373,8.148,137.975,25.758
			c49.319,17.871,77.604,40.989,77.601,63.427l-0.004,43.781c0,2.716-1.057,5.269-2.979,7.189c-1.919,1.919-4.472,2.978-7.188,2.978
			h-0.001l-76.168-0.006c-5.605,0-10.167-4.563-10.167-10.168l0.006-54.467H136.921l0.006,54.466c0,5.606-4.56,10.169-10.167,10.169
			l-76.167,0.006c-2.717,0-5.269-1.057-7.19-2.978c-1.921-1.921-2.979-4.473-2.979-7.189l-0.004-43.781
			C40.42,150.034,68.706,126.915,118.025,109.046z M475.254,428.712H36.746v-121.97l52.497-43.58l37.521-0.002
			c25.868-0.002,46.913-21.05,46.91-46.919l-0.001-17.715h164.656l-0.001,17.718c0,25.867,21.045,46.914,46.91,46.917l37.521,0.002
			l52.495,43.58V428.712z"/>
	</g>
</g>
<g>
	<g>
		<path d="M256,224.127c-50.655,0-91.866,41.211-91.866,91.866s41.211,91.866,91.866,91.866s91.866-41.211,91.866-91.866
			C347.866,265.338,306.655,224.127,256,224.127z M256,371.112c-30.393,0-55.12-24.727-55.12-55.12s24.727-55.12,55.12-55.12
			s55.12,24.727,55.12,55.12S286.393,371.112,256,371.112z "/>
	</g>
</g>
</svg>